# Blender v2.80 (sub 75) OBJ File: 'Ground.blend'
# www.blender.org
mtllib Ground_unit.mtl
o unit.003_Cube.021
v -0.988828 -0.200000 1.000000
v -0.988828 0.200000 1.000000
v -0.988828 -0.200000 -1.000000
v -0.988828 0.200000 -1.000000
v 1.011172 -0.200000 1.000000
v 1.011172 0.200000 1.000000
v 1.011172 -0.200000 -1.000000
v 1.011172 0.200000 -1.000000
v -0.988828 0.000000 1.000000
v -0.988828 0.000000 -1.000000
v 1.011172 0.000000 -1.000000
v 1.011172 0.000000 1.000000
v -0.988828 -0.092857 -1.000000
v 1.011172 -0.092857 -1.000000
v 1.011172 -0.092857 1.000000
v -0.988828 -0.092857 1.000000
v -0.988828 0.100000 1.000000
v -0.988828 0.100000 -1.000000
v 1.011172 0.100000 -1.000000
v 1.011172 0.100000 1.000000
vt 0.089385 0.661888
vt 0.089385 0.737598
vt 0.085963 0.737612
vt 0.085963 0.661902
vt 0.083339 0.649524
vt 0.083339 0.696317
vt 0.078915 0.696326
vt 0.078915 0.649533
vt 0.054308 0.713513
vt 0.054308 0.760306
vt 0.049884 0.760314
vt 0.049884 0.713522
vt 0.069571 0.688914
vt 0.069571 0.735706
vt 0.065148 0.735715
vt 0.065147 0.688923
vt 0.544850 0.122556
vt 0.555581 0.122556
vt 0.555581 0.133287
vt 0.544850 0.133287
vt 0.056951 0.675107
vt 0.065011 0.675107
vt 0.065011 0.683167
vt 0.056951 0.683167
vt 0.546512 0.434187
vt 0.552942 0.434187
vt 0.552942 0.461884
vt 0.546512 0.461884
vt 0.546512 0.406490
vt 0.552942 0.406490
vt 0.546512 0.378793
vt 0.552942 0.378793
vt 0.546512 0.351096
vt 0.552942 0.351096
vt 0.571350 0.103247
vt 0.570437 0.103247
vt 0.570437 0.099839
vt 0.571350 0.099839
vt 0.570437 0.096432
vt 0.571350 0.096432
vt 0.570437 0.093024
vt 0.571350 0.093024
vt 0.570437 0.089616
vt 0.571350 0.089616
vt 0.585717 0.054425
vt 0.585058 0.054425
vt 0.585058 0.051790
vt 0.585717 0.051790
vt 0.585717 0.057059
vt 0.585058 0.057059
vt 0.585717 0.059693
vt 0.585058 0.059693
vt 0.585717 0.062328
vt 0.585058 0.062328
vn -1.0000 0.0000 0.0000
vn 0.0000 0.0000 -1.0000
vn 1.0000 0.0000 0.0000
vn 0.0000 0.0000 1.0000
vn 0.0000 -1.0000 0.0000
vn 0.0000 1.0000 0.0000
usemtl Material.003
s off
f 17/1/1 2/2/1 4/3/1 18/4/1
f 18/5/2 4/6/2 8/7/2 19/8/2
f 19/9/3 8/10/3 6/11/3 20/12/3
f 20/13/4 6/14/4 2/15/4 17/16/4
f 3/17/5 7/18/5 5/19/5 1/20/5
f 8/21/6 4/22/6 2/23/6 6/24/6
f 15/25/4 12/26/4 9/27/4 16/28/4
f 14/29/3 11/30/3 12/26/3 15/25/3
f 13/31/2 10/32/2 11/30/2 14/29/2
f 16/33/1 9/34/1 10/32/1 13/31/1
f 1/35/1 16/36/1 13/37/1 3/38/1
f 3/38/2 13/37/2 14/39/2 7/40/2
f 7/40/3 14/39/3 15/41/3 5/42/3
f 5/42/4 15/41/4 16/43/4 1/44/4
f 12/45/4 20/46/4 17/47/4 9/48/4
f 11/49/3 19/50/3 20/46/3 12/45/3
f 10/51/2 18/52/2 19/50/2 11/49/2
f 9/53/1 17/54/1 18/52/1 10/51/1
