# Blender v2.90.0 OBJ File: ''
# www.blender.org
mtllib marblefloor.mtl
o Cube
v 6.160407 0.333333 -6.160407
v 6.160407 -0.333333 -6.160407
v 6.160407 0.333333 6.160407
v 6.160407 -0.333333 6.160407
v -6.160407 0.333333 -6.160407
v -6.160407 -0.333333 -6.160407
v -6.160407 0.333333 6.160407
v -6.160407 -0.333333 6.160407
vt -0.124716 -0.124072
vt 1.369776 -0.124072
vt 1.369776 1.370419
vt -0.124716 1.370419
vt 0.253009 0.958826
vt 0.257838 0.958826
vt 0.257838 0.963655
vt 0.253009 0.963655
vt 0.253009 0.944339
vt 0.257838 0.944339
vt 0.257838 0.949168
vt 0.253009 0.949168
vt 0.248180 0.953997
vt 0.253009 0.953997
vt 0.248180 0.958826
vt 0.257838 0.953997
vn 0.0000 1.0000 0.0000
vn 0.0000 0.0000 1.0000
vn -1.0000 0.0000 0.0000
vn 0.0000 -1.0000 0.0000
vn 1.0000 0.0000 0.0000
vn 0.0000 0.0000 -1.0000
usemtl Material
s off
f 1/1/1 5/2/1 7/3/1 3/4/1
f 4/5/2 3/6/2 7/7/2 8/8/2
f 8/9/3 7/10/3 5/11/3 6/12/3
f 6/13/4 2/14/4 4/5/4 8/15/4
f 2/14/5 1/16/5 3/6/5 4/5/5
f 6/12/6 5/11/6 1/16/6 2/14/6
